<svg width="45" height="10" viewBox="0 0 45 10" fill="none" xmlns="http://www.w3.org/2000/svg">
<path d="M1.198 3.428C1.198 3.7 1.236 3.944 1.312 4.16C1.392 4.372 1.504 4.552 1.648 4.7C1.796 4.848 1.974 4.96 2.182 5.036C2.394 5.112 2.63 5.15 2.89 5.15C3.178 5.15 3.432 5.104 3.652 5.012C3.876 4.916 4.064 4.79 4.216 4.634C4.368 4.478 4.484 4.298 4.564 4.094C4.644 3.89 4.684 3.678 4.684 3.458C4.684 3.19 4.64 2.948 4.552 2.732C4.468 2.512 4.35 2.326 4.198 2.174C4.046 2.022 3.864 1.906 3.652 1.826C3.444 1.742 3.214 1.7 2.962 1.7C2.698 1.7 2.458 1.744 2.242 1.832C2.026 1.916 1.84 2.034 1.684 2.186C1.528 2.338 1.408 2.52 1.324 2.732C1.24 2.944 1.198 3.176 1.198 3.428ZM3.694 6.074C3.782 5.958 3.864 5.848 3.94 5.744C4.016 5.64 4.088 5.536 4.156 5.432C3.936 5.608 3.688 5.742 3.412 5.834C3.136 5.926 2.844 5.972 2.536 5.972C2.212 5.972 1.904 5.918 1.612 5.81C1.324 5.702 1.07 5.544 0.85 5.336C0.63 5.124 0.454 4.866 0.322 4.562C0.194 4.254 0.13 3.902 0.13 3.506C0.13 3.13 0.2 2.778 0.34 2.45C0.48 2.122 0.676 1.836 0.928 1.592C1.18 1.348 1.48 1.156 1.828 1.016C2.176 0.875999 2.558 0.805999 2.974 0.805999C3.386 0.805999 3.76 0.873999 4.096 1.01C4.432 1.146 4.72 1.336 4.96 1.58C5.2 1.824 5.384 2.116 5.512 2.456C5.644 2.796 5.71 3.172 5.71 3.584C5.71 3.832 5.686 4.068 5.638 4.292C5.594 4.512 5.528 4.73 5.44 4.946C5.356 5.158 5.252 5.37 5.128 5.582C5.004 5.79 4.864 6.004 4.708 6.224L2.614 9.248C2.562 9.324 2.488 9.386 2.392 9.434C2.296 9.478 2.186 9.5 2.062 9.5H1.078L3.694 6.074ZM7.21094 8.84C7.21094 8.736 7.22894 8.638 7.26494 8.546C7.30494 8.454 7.35694 8.374 7.42094 8.306C7.48894 8.238 7.56894 8.184 7.66094 8.144C7.75294 8.104 7.85094 8.084 7.95494 8.084C8.05894 8.084 8.15694 8.104 8.24894 8.144C8.34094 8.184 8.42094 8.238 8.48894 8.306C8.55694 8.374 8.61094 8.454 8.65094 8.546C8.69094 8.638 8.71094 8.736 8.71094 8.84C8.71094 8.948 8.69094 9.048 8.65094 9.14C8.61094 9.228 8.55694 9.306 8.48894 9.374C8.42094 9.442 8.34094 9.494 8.24894 9.53C8.15694 9.57 8.05894 9.59 7.95494 9.59C7.85094 9.59 7.75294 9.57 7.66094 9.53C7.56894 9.494 7.48894 9.442 7.42094 9.374C7.35694 9.306 7.30494 9.228 7.26494 9.14C7.22894 9.048 7.21094 8.948 7.21094 8.84ZM7.21094 4.34C7.21094 4.236 7.22894 4.138 7.26494 4.046C7.30494 3.954 7.35694 3.874 7.42094 3.806C7.48894 3.738 7.56894 3.684 7.66094 3.644C7.75294 3.604 7.85094 3.584 7.95494 3.584C8.05894 3.584 8.15694 3.604 8.24894 3.644C8.34094 3.684 8.42094 3.738 8.48894 3.806C8.55694 3.874 8.61094 3.954 8.65094 4.046C8.69094 4.138 8.71094 4.236 8.71094 4.34C8.71094 4.448 8.69094 4.548 8.65094 4.64C8.61094 4.728 8.55694 4.806 8.48894 4.874C8.42094 4.942 8.34094 4.996 8.24894 5.036C8.15694 5.072 8.05894 5.09 7.95494 5.09C7.85094 5.09 7.75294 5.072 7.66094 5.036C7.56894 4.996 7.48894 4.942 7.42094 4.874C7.35694 4.806 7.30494 4.728 7.26494 4.64C7.22894 4.548 7.21094 4.448 7.21094 4.34ZM13.8409 6.398V2.852C13.8409 2.748 13.8449 2.634 13.8529 2.51C13.8609 2.386 13.8729 2.26 13.8889 2.132L10.7569 6.398H13.8409ZM16.0789 6.398V7.01C16.0789 7.074 16.0589 7.128 16.0189 7.172C15.9829 7.216 15.9249 7.238 15.8449 7.238H14.7769V9.5H13.8409V7.238H10.0249C9.94494 7.238 9.87494 7.216 9.81494 7.172C9.75894 7.124 9.72294 7.066 9.70694 6.998L9.59894 6.452L13.7809 0.901999H14.7769V6.398H16.0789ZM22.3439 8.486C22.4599 8.486 22.5519 8.52 22.6199 8.588C22.6879 8.656 22.7219 8.744 22.7219 8.852V9.5H16.9859V9.134C16.9859 9.058 17.0019 8.98 17.0339 8.9C17.0659 8.82 17.1159 8.746 17.1839 8.678L19.9379 5.912C20.1659 5.68 20.3739 5.458 20.5619 5.246C20.7499 5.03 20.9099 4.814 21.0419 4.598C21.1739 4.382 21.2759 4.164 21.3479 3.944C21.4199 3.72 21.4559 3.482 21.4559 3.23C21.4559 2.978 21.4159 2.758 21.3359 2.57C21.2559 2.378 21.1459 2.22 21.0059 2.096C20.8699 1.972 20.7079 1.88 20.5199 1.82C20.3319 1.756 20.1299 1.724 19.9139 1.724C19.6939 1.724 19.4919 1.756 19.3079 1.82C19.1239 1.884 18.9599 1.974 18.8159 2.09C18.6759 2.202 18.5579 2.336 18.4619 2.492C18.3659 2.648 18.2979 2.82 18.2579 3.008C18.2099 3.148 18.1439 3.242 18.0599 3.29C17.9799 3.334 17.8659 3.346 17.7179 3.326L17.1599 3.23C17.2159 2.838 17.3239 2.492 17.4839 2.192C17.6479 1.888 17.8519 1.634 18.0959 1.43C18.3439 1.226 18.6259 1.072 18.9419 0.968C19.2579 0.859999 19.5999 0.805999 19.9679 0.805999C20.3319 0.805999 20.6719 0.859999 20.9879 0.968C21.3039 1.076 21.5779 1.234 21.8099 1.442C22.0419 1.646 22.2239 1.896 22.3559 2.192C22.4879 2.488 22.5539 2.824 22.5539 3.2C22.5539 3.52 22.5059 3.818 22.4099 4.094C22.3139 4.366 22.1839 4.626 22.0199 4.874C21.8559 5.122 21.6659 5.364 21.4499 5.6C21.2379 5.836 21.0119 6.074 20.7719 6.314L18.5039 8.63C18.6639 8.586 18.8259 8.552 18.9899 8.528C19.1539 8.5 19.3119 8.486 19.4639 8.486H22.3439ZM31.7187 6.308L30.3687 2.81C30.3287 2.706 30.2867 2.586 30.2427 2.45C30.1987 2.31 30.1567 2.162 30.1167 2.006C30.0327 2.33 29.9467 2.6 29.8587 2.816L28.5087 6.308H31.7187ZM34.1427 9.5H33.2427C33.1387 9.5 33.0547 9.474 32.9907 9.422C32.9267 9.37 32.8787 9.304 32.8467 9.224L32.0427 7.148H28.1847L27.3807 9.224C27.3567 9.296 27.3107 9.36 27.2427 9.416C27.1747 9.472 27.0907 9.5 26.9907 9.5H26.0907L29.5287 0.901999H30.7047L34.1427 9.5ZM44.2198 0.901999V9.5H43.1998V3.182C43.1998 3.098 43.2018 3.008 43.2058 2.912C43.2138 2.816 43.2218 2.718 43.2298 2.618L40.2778 7.994C40.1858 8.174 40.0458 8.264 39.8578 8.264H39.6898C39.5018 8.264 39.3618 8.174 39.2698 7.994L36.2578 2.594C36.2818 2.806 36.2938 3.002 36.2938 3.182V9.5H35.2738V0.901999H36.1318C36.2358 0.901999 36.3158 0.911999 36.3718 0.931999C36.4278 0.951999 36.4818 1.008 36.5338 1.1L39.5038 6.392C39.5518 6.488 39.5978 6.588 39.6418 6.692C39.6898 6.796 39.7338 6.902 39.7738 7.01C39.8138 6.902 39.8558 6.796 39.8998 6.692C39.9438 6.584 39.9918 6.482 40.0438 6.386L42.9598 1.1C43.0078 1.008 43.0598 0.951999 43.1158 0.931999C43.1758 0.911999 43.2578 0.901999 43.3618 0.901999H44.2198Z" fill="white"/>
</svg>
