<svg width="371" height="42" viewBox="0 0 371 42" fill="none" xmlns="http://www.w3.org/2000/svg">
<g filter="url(#filter0_d_13_46)">
<path fill-rule="evenodd" clip-rule="evenodd" d="M0 17.4445V5.44447C0 3.23533 1.79086 1.44447 4 1.44447H367C369.209 1.44447 371 3.23533 371 5.44447V29.4445C371 31.6536 369.209 33.4445 367 33.4445H3.99999C1.79085 33.4445 0 31.6536 0 29.4445V17.4445Z" fill="#333333"/>
<path d="M121.232 22.4445H119.939L123.678 12.2627H124.95L128.689 22.4445H127.396L124.354 13.8735H124.274L121.232 22.4445ZM121.709 18.4672H126.919V19.561H121.709V18.4672ZM132.999 22.6036C132.363 22.6036 131.801 22.4428 131.314 22.1213C130.827 21.7965 130.446 21.3391 130.171 20.7492C129.895 20.1559 129.758 19.4549 129.758 18.6462C129.758 17.8441 129.895 17.1481 130.171 16.5581C130.446 15.9681 130.828 15.5124 131.319 15.1909C131.81 14.8694 132.376 14.7087 133.019 14.7087C133.516 14.7087 133.909 14.7915 134.198 14.9573C134.489 15.1197 134.711 15.3053 134.864 15.5141C135.02 15.7196 135.14 15.8886 135.227 16.0212H135.326V12.2627H136.499V22.4445H135.366V21.2712H135.227C135.14 21.4104 135.018 21.586 134.859 21.7982C134.7 22.007 134.473 22.1942 134.178 22.36C133.883 22.5224 133.49 22.6036 132.999 22.6036ZM133.158 21.5496C133.629 21.5496 134.027 21.427 134.352 21.1817C134.676 20.9331 134.923 20.5901 135.092 20.1526C135.261 19.7118 135.346 19.203 135.346 18.6263C135.346 18.0562 135.263 17.5574 135.097 17.1298C134.932 16.699 134.686 16.3642 134.362 16.1256C134.037 15.8836 133.636 15.7627 133.158 15.7627C132.661 15.7627 132.247 15.8903 131.916 16.1455C131.587 16.3974 131.341 16.7404 131.175 17.1746C131.012 17.6055 130.931 18.0894 130.931 18.6263C130.931 19.1699 131.014 19.6637 131.18 20.1078C131.349 20.5486 131.597 20.9 131.926 21.1618C132.257 21.4203 132.668 21.5496 133.158 21.5496ZM138.811 22.4445V14.8081H139.984V22.4445H138.811ZM139.408 13.5354C139.179 13.5354 138.982 13.4575 138.816 13.3017C138.654 13.1459 138.573 12.9587 138.573 12.7399C138.573 12.5212 138.654 12.3339 138.816 12.1781C138.982 12.0224 139.179 11.9445 139.408 11.9445C139.636 11.9445 139.832 12.0224 139.994 12.1781C140.16 12.3339 140.243 12.5212 140.243 12.7399C140.243 12.9587 140.16 13.1459 139.994 13.3017C139.832 13.4575 139.636 13.5354 139.408 13.5354ZM145.236 22.6036C144.52 22.6036 143.903 22.4345 143.386 22.0965C142.869 21.7584 142.472 21.2927 142.193 20.6994C141.915 20.1062 141.775 19.4284 141.775 18.6661C141.775 17.8905 141.918 17.2061 142.203 16.6128C142.491 16.0162 142.892 15.5505 143.406 15.2158C143.923 14.8777 144.526 14.7087 145.216 14.7087C145.753 14.7087 146.237 14.8081 146.668 15.007C147.098 15.2058 147.451 15.4842 147.726 15.8422C148.002 16.2002 148.172 16.6178 148.239 17.095H147.065C146.976 16.747 146.777 16.4388 146.469 16.1703C146.164 15.8985 145.753 15.7627 145.236 15.7627C144.778 15.7627 144.377 15.882 144.033 16.1206C143.691 16.3559 143.424 16.689 143.232 17.1199C143.043 17.5475 142.949 18.0496 142.949 18.6263C142.949 19.2163 143.042 19.73 143.227 20.1675C143.416 20.605 143.681 20.9447 144.023 21.1867C144.367 21.4286 144.772 21.5496 145.236 21.5496C145.541 21.5496 145.817 21.4966 146.066 21.3905C146.315 21.2844 146.525 21.132 146.697 20.9331C146.87 20.7342 146.992 20.4956 147.065 20.2172H148.239C148.172 20.668 148.008 21.074 147.746 21.4352C147.488 21.7932 147.145 22.0782 146.717 22.2904C146.293 22.4992 145.799 22.6036 145.236 22.6036ZM149.954 22.4445V14.8081H151.127V22.4445H149.954ZM150.55 13.5354C150.322 13.5354 150.124 13.4575 149.959 13.3017C149.796 13.1459 149.715 12.9587 149.715 12.7399C149.715 12.5212 149.796 12.3339 149.959 12.1781C150.124 12.0224 150.322 11.9445 150.55 11.9445C150.779 11.9445 150.975 12.0224 151.137 12.1781C151.303 12.3339 151.386 12.5212 151.386 12.7399C151.386 12.9587 151.303 13.1459 151.137 13.3017C150.975 13.4575 150.779 13.5354 150.55 13.5354ZM156.378 22.6036C155.689 22.6036 155.084 22.4395 154.564 22.1114C154.047 21.7833 153.642 21.3242 153.351 20.7342C153.062 20.1443 152.918 19.4549 152.918 18.6661C152.918 17.8706 153.062 17.1762 153.351 16.583C153.642 15.9897 154.047 15.529 154.564 15.2009C155.084 14.8727 155.689 14.7087 156.378 14.7087C157.068 14.7087 157.671 14.8727 158.188 15.2009C158.708 15.529 159.113 15.9897 159.401 16.583C159.693 17.1762 159.839 17.8706 159.839 18.6661C159.839 19.4549 159.693 20.1443 159.401 20.7342C159.113 21.3242 158.708 21.7833 158.188 22.1114C157.671 22.4395 157.068 22.6036 156.378 22.6036ZM156.378 21.5496C156.902 21.5496 157.333 21.4154 157.671 21.1469C158.009 20.8784 158.259 20.5254 158.422 20.0879C158.584 19.6504 158.665 19.1765 158.665 18.6661C158.665 18.1556 158.584 17.68 158.422 17.2392C158.259 16.7984 158.009 16.4421 157.671 16.1703C157.333 15.8985 156.902 15.7627 156.378 15.7627C155.855 15.7627 155.424 15.8985 155.086 16.1703C154.748 16.4421 154.497 16.7984 154.335 17.2392C154.173 17.68 154.091 18.1556 154.091 18.6661C154.091 19.1765 154.173 19.6504 154.335 20.0879C154.497 20.5254 154.748 20.8784 155.086 21.1469C155.424 21.4154 155.855 21.5496 156.378 21.5496ZM162.803 17.8507V22.4445H161.63V14.8081H162.763V16.0013H162.862C163.041 15.6135 163.313 15.302 163.678 15.0666C164.042 14.828 164.513 14.7087 165.09 14.7087C165.607 14.7087 166.059 14.8147 166.447 15.0269C166.835 15.2357 167.136 15.5538 167.352 15.9814C167.567 16.4056 167.675 16.9426 167.675 17.5922V22.4445H166.502V17.6717C166.502 17.0718 166.346 16.6045 166.034 16.2698C165.723 15.9317 165.295 15.7627 164.752 15.7627C164.377 15.7627 164.042 15.8439 163.747 16.0063C163.456 16.1687 163.225 16.4056 163.056 16.7172C162.887 17.0288 162.803 17.4066 162.803 17.8507ZM172.066 22.6235C171.582 22.6235 171.143 22.5323 170.749 22.35C170.354 22.1644 170.041 21.8976 169.809 21.5496C169.577 21.1983 169.461 20.774 169.461 20.2769C169.461 19.8394 169.547 19.4847 169.72 19.2129C169.892 18.9378 170.122 18.7224 170.411 18.5666C170.699 18.4109 171.017 18.2949 171.365 18.2186C171.716 18.1391 172.069 18.0761 172.424 18.0297C172.888 17.97 173.264 17.9253 173.553 17.8955C173.844 17.8623 174.056 17.8076 174.189 17.7314C174.325 17.6552 174.393 17.5226 174.393 17.3337V17.2939C174.393 16.8034 174.259 16.4222 173.99 16.1504C173.725 15.8787 173.322 15.7428 172.782 15.7428C172.222 15.7428 171.783 15.8654 171.465 16.1107C171.146 16.3559 170.923 16.6178 170.793 16.8962L169.68 16.4985C169.879 16.0344 170.144 15.6732 170.475 15.4146C170.81 15.1528 171.175 14.9705 171.569 14.8678C171.967 14.7617 172.358 14.7087 172.742 14.7087C172.988 14.7087 173.269 14.7385 173.587 14.7982C173.909 14.8545 174.219 14.9722 174.517 15.1511C174.819 15.3301 175.069 15.6002 175.268 15.9615C175.467 16.3228 175.566 16.8067 175.566 17.4132V22.4445H174.393V21.4104H174.333C174.254 21.5761 174.121 21.7534 173.935 21.9423C173.75 22.1313 173.503 22.292 173.195 22.4246C172.886 22.5572 172.51 22.6235 172.066 22.6235ZM172.245 21.5695C172.709 21.5695 173.1 21.4783 173.418 21.296C173.74 21.1137 173.982 20.8784 174.144 20.5901C174.31 20.3017 174.393 19.9985 174.393 19.6803V18.6064C174.343 18.6661 174.234 18.7208 174.065 18.7705C173.899 18.8169 173.707 18.8583 173.488 18.8948C173.273 18.9279 173.062 18.9577 172.857 18.9842C172.654 19.0074 172.49 19.0273 172.364 19.0439C172.06 19.0837 171.774 19.1483 171.509 19.2378C171.247 19.324 171.035 19.4549 170.873 19.6306C170.714 19.8029 170.634 20.0382 170.634 20.3365C170.634 20.7442 170.785 21.0524 171.087 21.2612C171.392 21.4667 171.778 21.5695 172.245 21.5695ZM177.708 22.4445V14.8081H178.841V15.9615H178.921C179.06 15.5837 179.312 15.2771 179.676 15.0418C180.041 14.8065 180.452 14.6888 180.909 14.6888C180.996 14.6888 181.103 14.6904 181.233 14.6938C181.362 14.6971 181.46 14.702 181.526 14.7087V15.9019C181.486 15.8919 181.395 15.877 181.252 15.8571C181.113 15.8339 180.966 15.8223 180.81 15.8223C180.439 15.8223 180.107 15.9002 179.816 16.056C179.527 16.2084 179.299 16.4206 179.13 16.6923C178.964 16.9608 178.881 17.2674 178.881 17.6121V22.4445H177.708ZM190.175 14.8081V15.8024H186.218V14.8081H190.175ZM187.371 12.9786H188.544V20.257C188.544 20.5884 188.593 20.837 188.689 21.0027C188.788 21.1651 188.914 21.2745 189.066 21.3308C189.222 21.3839 189.386 21.4104 189.559 21.4104C189.688 21.4104 189.794 21.4038 189.877 21.3905C189.96 21.3739 190.026 21.3607 190.076 21.3507L190.314 22.4047C190.235 22.4345 190.124 22.4644 189.981 22.4942C189.839 22.5273 189.658 22.5439 189.439 22.5439C189.108 22.5439 188.783 22.4726 188.465 22.3301C188.15 22.1876 187.888 21.9705 187.679 21.6788C187.474 21.3872 187.371 21.0193 187.371 20.5752V12.9786ZM191.94 22.4445V14.8081H193.074V15.9615H193.153C193.292 15.5837 193.544 15.2771 193.909 15.0418C194.273 14.8065 194.684 14.6888 195.142 14.6888C195.228 14.6888 195.336 14.6904 195.465 14.6938C195.594 14.6971 195.692 14.702 195.758 14.7087V15.9019C195.718 15.8919 195.627 15.877 195.485 15.8571C195.346 15.8339 195.198 15.8223 195.042 15.8223C194.671 15.8223 194.34 15.9002 194.048 16.056C193.76 16.2084 193.531 16.4206 193.362 16.6923C193.196 16.9608 193.113 17.2674 193.113 17.6121V22.4445H191.94ZM199.396 22.6235C198.912 22.6235 198.473 22.5323 198.079 22.35C197.684 22.1644 197.371 21.8976 197.139 21.5496C196.907 21.1983 196.791 20.774 196.791 20.2769C196.791 19.8394 196.877 19.4847 197.05 19.2129C197.222 18.9378 197.452 18.7224 197.741 18.5666C198.029 18.4109 198.347 18.2949 198.695 18.2186C199.047 18.1391 199.4 18.0761 199.754 18.0297C200.218 17.97 200.594 17.9253 200.883 17.8955C201.174 17.8623 201.387 17.8076 201.519 17.7314C201.655 17.6552 201.723 17.5226 201.723 17.3337V17.2939C201.723 16.8034 201.589 16.4222 201.32 16.1504C201.055 15.8787 200.652 15.7428 200.112 15.7428C199.552 15.7428 199.113 15.8654 198.795 16.1107C198.476 16.3559 198.253 16.6178 198.123 16.8962L197.01 16.4985C197.209 16.0344 197.474 15.6732 197.805 15.4146C198.14 15.1528 198.505 14.9705 198.899 14.8678C199.297 14.7617 199.688 14.7087 200.072 14.7087C200.318 14.7087 200.599 14.7385 200.918 14.7982C201.239 14.8545 201.549 14.9722 201.847 15.1511C202.149 15.3301 202.399 15.6002 202.598 15.9615C202.797 16.3228 202.896 16.8067 202.896 17.4132V22.4445H201.723V21.4104H201.663C201.584 21.5761 201.451 21.7534 201.266 21.9423C201.08 22.1313 200.833 22.292 200.525 22.4246C200.217 22.5572 199.84 22.6235 199.396 22.6235ZM199.575 21.5695C200.039 21.5695 200.43 21.4783 200.748 21.296C201.07 21.1137 201.312 20.8784 201.474 20.5901C201.64 20.3017 201.723 19.9985 201.723 19.6803V18.6064C201.673 18.6661 201.564 18.7208 201.395 18.7705C201.229 18.8169 201.037 18.8583 200.818 18.8948C200.603 18.9279 200.392 18.9577 200.187 18.9842C199.985 19.0074 199.82 19.0273 199.695 19.0439C199.39 19.0837 199.105 19.1483 198.839 19.2378C198.578 19.324 198.365 19.4549 198.203 19.6306C198.044 19.8029 197.964 20.0382 197.964 20.3365C197.964 20.7442 198.115 21.0524 198.417 21.2612C198.722 21.4667 199.108 21.5695 199.575 21.5695ZM206.211 17.8507V22.4445H205.038V14.8081H206.171V16.0013H206.271C206.45 15.6135 206.721 15.302 207.086 15.0666C207.451 14.828 207.921 14.7087 208.498 14.7087C209.015 14.7087 209.467 14.8147 209.855 15.0269C210.243 15.2357 210.545 15.5538 210.76 15.9814C210.975 16.4056 211.083 16.9426 211.083 17.5922V22.4445H209.91V17.6717C209.91 17.0718 209.754 16.6045 209.443 16.2698C209.131 15.9317 208.703 15.7627 208.16 15.7627C207.785 15.7627 207.451 15.8439 207.156 16.0063C206.864 16.1687 206.634 16.4056 206.465 16.7172C206.296 17.0288 206.211 17.4066 206.211 17.8507ZM218.636 16.5183L217.582 16.8166C217.516 16.641 217.418 16.4703 217.289 16.3046C217.163 16.1355 216.991 15.9963 216.772 15.8869C216.553 15.7776 216.273 15.7229 215.932 15.7229C215.464 15.7229 215.075 15.8306 214.763 16.046C214.455 16.2582 214.301 16.5283 214.301 16.8564C214.301 17.1481 214.407 17.3784 214.619 17.5475C214.831 17.7165 215.163 17.8574 215.614 17.97L216.747 18.2485C217.43 18.4142 217.939 18.6677 218.273 19.0091C218.608 19.3472 218.775 19.783 218.775 20.3166C218.775 20.7541 218.65 21.1452 218.398 21.4899C218.149 21.8346 217.801 22.1064 217.354 22.3053C216.906 22.5041 216.386 22.6036 215.793 22.6036C215.014 22.6036 214.369 22.4345 213.859 22.0965C213.348 21.7584 213.025 21.2645 212.889 20.6149L214.003 20.3365C214.109 20.7475 214.309 21.0557 214.604 21.2612C214.903 21.4667 215.292 21.5695 215.773 21.5695C216.32 21.5695 216.754 21.4535 217.075 21.2215C217.4 20.9861 217.562 20.7044 217.562 20.3763C217.562 20.1111 217.47 19.8891 217.284 19.7101C217.098 19.5278 216.813 19.3919 216.429 19.3024L215.156 19.0041C214.457 18.8384 213.943 18.5815 213.615 18.2335C213.29 17.8822 213.128 17.4431 213.128 16.9161C213.128 16.4852 213.249 16.104 213.491 15.7726C213.736 15.4412 214.069 15.181 214.49 14.9921C214.914 14.8031 215.395 14.7087 215.932 14.7087C216.687 14.7087 217.281 14.8744 217.712 15.2058C218.146 15.5373 218.454 15.9748 218.636 16.5183ZM222.789 22.6235C222.305 22.6235 221.866 22.5323 221.471 22.35C221.077 22.1644 220.764 21.8976 220.532 21.5496C220.3 21.1983 220.184 20.774 220.184 20.2769C220.184 19.8394 220.27 19.4847 220.442 19.2129C220.615 18.9378 220.845 18.7224 221.133 18.5666C221.422 18.4109 221.74 18.2949 222.088 18.2186C222.439 18.1391 222.792 18.0761 223.147 18.0297C223.611 17.97 223.987 17.9253 224.275 17.8955C224.567 17.8623 224.779 17.8076 224.912 17.7314C225.048 17.6552 225.116 17.5226 225.116 17.3337V17.2939C225.116 16.8034 224.981 16.4222 224.713 16.1504C224.448 15.8787 224.045 15.7428 223.505 15.7428C222.945 15.7428 222.505 15.8654 222.187 16.1107C221.869 16.3559 221.645 16.6178 221.516 16.8962L220.402 16.4985C220.601 16.0344 220.866 15.6732 221.198 15.4146C221.533 15.1528 221.897 14.9705 222.292 14.8678C222.689 14.7617 223.08 14.7087 223.465 14.7087C223.71 14.7087 223.992 14.7385 224.31 14.7982C224.632 14.8545 224.941 14.9722 225.24 15.1511C225.541 15.3301 225.792 15.6002 225.991 15.9615C226.189 16.3228 226.289 16.8067 226.289 17.4132V22.4445H225.116V21.4104H225.056C224.976 21.5761 224.844 21.7534 224.658 21.9423C224.473 22.1313 224.226 22.292 223.917 22.4246C223.609 22.5572 223.233 22.6235 222.789 22.6235ZM222.968 21.5695C223.432 21.5695 223.823 21.4783 224.141 21.296C224.463 21.1137 224.705 20.8784 224.867 20.5901C225.033 20.3017 225.116 19.9985 225.116 19.6803V18.6064C225.066 18.6661 224.956 18.7208 224.787 18.7705C224.622 18.8169 224.429 18.8583 224.211 18.8948C223.995 18.9279 223.785 18.9577 223.579 18.9842C223.377 19.0074 223.213 19.0273 223.087 19.0439C222.782 19.0837 222.497 19.1483 222.232 19.2378C221.97 19.324 221.758 19.4549 221.596 19.6306C221.437 19.8029 221.357 20.0382 221.357 20.3365C221.357 20.7442 221.508 21.0524 221.809 21.2612C222.114 21.4667 222.5 21.5695 222.968 21.5695ZM231.533 22.6036C230.817 22.6036 230.2 22.4345 229.683 22.0965C229.166 21.7584 228.768 21.2927 228.49 20.6994C228.212 20.1062 228.072 19.4284 228.072 18.6661C228.072 17.8905 228.215 17.2061 228.5 16.6128C228.788 16.0162 229.189 15.5505 229.703 15.2158C230.22 14.8777 230.823 14.7087 231.513 14.7087C232.05 14.7087 232.534 14.8081 232.964 15.007C233.395 15.2058 233.748 15.4842 234.023 15.8422C234.298 16.2002 234.469 16.6178 234.535 17.095H233.362C233.273 16.747 233.074 16.4388 232.766 16.1703C232.461 15.8985 232.05 15.7627 231.533 15.7627C231.075 15.7627 230.674 15.882 230.329 16.1206C229.988 16.3559 229.721 16.689 229.529 17.1199C229.34 17.5475 229.246 18.0496 229.246 18.6263C229.246 19.2163 229.338 19.73 229.524 20.1675C229.713 20.605 229.978 20.9447 230.32 21.1867C230.664 21.4286 231.069 21.5496 231.533 21.5496C231.838 21.5496 232.114 21.4966 232.363 21.3905C232.611 21.2844 232.822 21.132 232.994 20.9331C233.167 20.7342 233.289 20.4956 233.362 20.2172H234.535C234.469 20.668 234.305 21.074 234.043 21.4352C233.785 21.7932 233.442 22.0782 233.014 22.2904C232.59 22.4992 232.096 22.6036 231.533 22.6036ZM230.976 22.4047H231.95L231.871 22.8024C232.129 22.8422 232.366 22.9499 232.582 23.1256C232.797 23.3046 232.905 23.5879 232.905 23.9757C232.905 24.4033 232.727 24.7513 232.373 25.0198C232.021 25.2915 231.503 25.4274 230.817 25.4274L230.777 24.6519C231.085 24.6519 231.34 24.6021 231.543 24.5027C231.748 24.4066 231.851 24.2442 231.851 24.0155C231.851 23.7868 231.766 23.631 231.597 23.5482C231.428 23.4653 231.155 23.409 230.777 23.3791L230.976 22.4047ZM238.498 22.6235C238.014 22.6235 237.575 22.5323 237.18 22.35C236.786 22.1644 236.473 21.8976 236.241 21.5496C236.009 21.1983 235.893 20.774 235.893 20.2769C235.893 19.8394 235.979 19.4847 236.151 19.2129C236.324 18.9378 236.554 18.7224 236.842 18.5666C237.131 18.4109 237.449 18.2949 237.797 18.2186C238.148 18.1391 238.501 18.0761 238.856 18.0297C239.32 17.97 239.696 17.9253 239.984 17.8955C240.276 17.8623 240.488 17.8076 240.621 17.7314C240.757 17.6552 240.824 17.5226 240.824 17.3337V17.2939C240.824 16.8034 240.69 16.4222 240.422 16.1504C240.157 15.8787 239.754 15.7428 239.214 15.7428C238.654 15.7428 238.214 15.8654 237.896 16.1107C237.578 16.3559 237.354 16.6178 237.225 16.8962L236.111 16.4985C236.31 16.0344 236.575 15.6732 236.907 15.4146C237.242 15.1528 237.606 14.9705 238.001 14.8678C238.398 14.7617 238.789 14.7087 239.174 14.7087C239.419 14.7087 239.701 14.7385 240.019 14.7982C240.341 14.8545 240.65 14.9722 240.949 15.1511C241.25 15.3301 241.501 15.6002 241.699 15.9615C241.898 16.3228 241.998 16.8067 241.998 17.4132V22.4445H240.824V21.4104H240.765C240.685 21.5761 240.553 21.7534 240.367 21.9423C240.181 22.1313 239.935 22.292 239.626 22.4246C239.318 22.5572 238.942 22.6235 238.498 22.6235ZM238.677 21.5695C239.141 21.5695 239.532 21.4783 239.85 21.296C240.172 21.1137 240.414 20.8784 240.576 20.5901C240.742 20.3017 240.824 19.9985 240.824 19.6803V18.6064C240.775 18.6661 240.665 18.7208 240.496 18.7705C240.331 18.8169 240.138 18.8583 239.92 18.8948C239.704 18.9279 239.494 18.9577 239.288 18.9842C239.086 19.0074 238.922 19.0273 238.796 19.0439C238.491 19.0837 238.206 19.1483 237.941 19.2378C237.679 19.324 237.467 19.4549 237.305 19.6306C237.146 19.8029 237.066 20.0382 237.066 20.3365C237.066 20.7442 237.217 21.0524 237.518 21.2612C237.823 21.4667 238.209 21.5695 238.677 21.5695ZM237.722 13.8933L236.807 13.8536C236.807 13.3465 236.952 12.9322 237.24 12.6107C237.532 12.2859 237.891 12.1235 238.319 12.1235C238.508 12.1235 238.675 12.1566 238.821 12.2229C238.967 12.2859 239.106 12.3588 239.239 12.4416C239.371 12.5245 239.507 12.5991 239.646 12.6654C239.789 12.7283 239.949 12.7598 240.128 12.7598C240.317 12.7598 240.476 12.6869 240.606 12.5411C240.738 12.3919 240.805 12.2129 240.805 12.0041L241.699 12.0837C241.699 12.6007 241.554 13.0117 241.262 13.3166C240.974 13.6216 240.616 13.774 240.188 13.774C239.959 13.774 239.771 13.7425 239.621 13.6796C239.472 13.6133 239.34 13.5387 239.224 13.4558C239.108 13.373 238.985 13.3001 238.856 13.2371C238.726 13.1708 238.567 13.1377 238.378 13.1377C238.19 13.1377 238.032 13.2122 237.906 13.3614C237.784 13.5072 237.722 13.6845 237.722 13.8933ZM247.242 22.6036C246.552 22.6036 245.947 22.4395 245.427 22.1114C244.91 21.7833 244.506 21.3242 244.214 20.7342C243.926 20.1443 243.781 19.4549 243.781 18.6661C243.781 17.8706 243.926 17.1762 244.214 16.583C244.506 15.9897 244.91 15.529 245.427 15.2009C245.947 14.8727 246.552 14.7087 247.242 14.7087C247.931 14.7087 248.534 14.8727 249.051 15.2009C249.572 15.529 249.976 15.9897 250.264 16.583C250.556 17.1762 250.702 17.8706 250.702 18.6661C250.702 19.4549 250.556 20.1443 250.264 20.7342C249.976 21.3242 249.572 21.7833 249.051 22.1114C248.534 22.4395 247.931 22.6036 247.242 22.6036ZM247.242 21.5496C247.765 21.5496 248.196 21.4154 248.534 21.1469C248.872 20.8784 249.122 20.5254 249.285 20.0879C249.447 19.6504 249.528 19.1765 249.528 18.6661C249.528 18.1556 249.447 17.68 249.285 17.2392C249.122 16.7984 248.872 16.4421 248.534 16.1703C248.196 15.8985 247.765 15.7627 247.242 15.7627C246.718 15.7627 246.287 15.8985 245.949 16.1703C245.611 16.4421 245.361 16.7984 245.198 17.2392C245.036 17.68 244.955 18.1556 244.955 18.6661C244.955 19.1765 245.036 19.6504 245.198 20.0879C245.361 20.5254 245.611 20.8784 245.949 21.1469C246.287 21.4154 246.718 21.5496 247.242 21.5496Z" fill="white"/>
</g>
<defs>
<filter id="filter0_d_13_46" x="-4" y="0.666672" width="379" height="41" filterUnits="userSpaceOnUse" color-interpolation-filters="sRGB">
<feFlood flood-opacity="0" result="BackgroundImageFix"/>
<feColorMatrix in="SourceAlpha" type="matrix" values="0 0 0 0 0 0 0 0 0 0 0 0 0 0 0 0 0 0 127 0" result="hardAlpha"/>
<feOffset dy="4"/>
<feGaussianBlur stdDeviation="2"/>
<feComposite in2="hardAlpha" operator="out"/>
<feColorMatrix type="matrix" values="0 0 0 0 0 0 0 0 0 0 0 0 0 0 0 0 0 0 0.25 0"/>
<feBlend mode="normal" in2="BackgroundImageFix" result="effect1_dropShadow_13_46"/>
<feBlend mode="normal" in="SourceGraphic" in2="effect1_dropShadow_13_46" result="shape"/>
</filter>
</defs>
</svg>
