<svg width="89" height="18" viewBox="0 0 89 18" fill="none" xmlns="http://www.w3.org/2000/svg">
<path fill-rule="evenodd" clip-rule="evenodd" d="M62.0025 5.02632C61.4472 5.02632 61 5.49554 61 6.07901V12.921C61 13.5019 61.4491 13.9737 62.0025 13.9737H81.4975C82.0528 13.9737 82.5 13.5045 82.5 12.921V6.07901C82.5 5.49811 82.0509 5.02632 81.4975 5.02632H62.0025ZM62.0025 4.5H81.4975C82.3266 4.5 83 5.20695 83 6.07901V12.921C83 13.7968 82.3273 14.5 81.4975 14.5H62.0025C61.1734 14.5 60.5 13.7931 60.5 12.921V6.07901C60.5 5.20318 61.1727 4.5 62.0025 4.5Z" fill="white"/>
<path fill-rule="evenodd" clip-rule="evenodd" d="M62 5.5C61.7239 5.5 61.5 5.72386 61.5 6V13C61.5 13.2761 61.7239 13.5 62 13.5H70.5V5.5H62Z" fill="white"/>
<path fill-rule="evenodd" clip-rule="evenodd" d="M85 9.73228C85 10.6139 84.3481 11.3432 83.5 11.4646V8C84.3481 8.12131 85 8.85066 85 9.73228Z" fill="white"/>
<path d="M34.88 11.398V7.852C34.88 7.748 34.884 7.634 34.892 7.51C34.9 7.386 34.912 7.26 34.928 7.132L31.796 11.398H34.88ZM37.118 11.398V12.01C37.118 12.074 37.098 12.128 37.058 12.172C37.022 12.216 36.964 12.238 36.884 12.238H35.816V14.5H34.88V12.238H31.064C30.984 12.238 30.914 12.216 30.854 12.172C30.798 12.124 30.762 12.066 30.746 11.998L30.638 11.452L34.82 5.902H35.816V11.398H37.118ZM43.3829 13.486C43.4989 13.486 43.5909 13.52 43.6589 13.588C43.7269 13.656 43.7609 13.744 43.7609 13.852V14.5H38.0249V14.134C38.0249 14.058 38.0409 13.98 38.0729 13.9C38.1049 13.82 38.1549 13.746 38.2229 13.678L40.9769 10.912C41.2049 10.68 41.4129 10.458 41.6009 10.246C41.7889 10.03 41.9489 9.814 42.0809 9.598C42.2129 9.382 42.3149 9.164 42.3869 8.944C42.4589 8.72 42.4949 8.482 42.4949 8.23C42.4949 7.978 42.4549 7.758 42.3749 7.57C42.2949 7.378 42.1849 7.22 42.0449 7.096C41.9089 6.972 41.7469 6.88 41.5589 6.82C41.3709 6.756 41.1689 6.724 40.9529 6.724C40.7329 6.724 40.5309 6.756 40.3469 6.82C40.1629 6.884 39.9989 6.974 39.8549 7.09C39.7149 7.202 39.5969 7.336 39.5009 7.492C39.4049 7.648 39.3369 7.82 39.2969 8.008C39.2489 8.148 39.1829 8.242 39.0989 8.29C39.0189 8.334 38.9049 8.346 38.7569 8.326L38.1989 8.23C38.2549 7.838 38.3629 7.492 38.5229 7.192C38.6869 6.888 38.8909 6.634 39.1349 6.43C39.3829 6.226 39.6649 6.072 39.9809 5.968C40.2969 5.86 40.6389 5.806 41.0069 5.806C41.3709 5.806 41.7109 5.86 42.0269 5.968C42.3429 6.076 42.6169 6.234 42.8489 6.442C43.0809 6.646 43.2629 6.896 43.3949 7.192C43.5269 7.488 43.5929 7.824 43.5929 8.2C43.5929 8.52 43.5449 8.818 43.4489 9.094C43.3529 9.366 43.2229 9.626 43.0589 9.874C42.8949 10.122 42.7049 10.364 42.4889 10.6C42.2769 10.836 42.0509 11.074 41.8109 11.314L39.5429 13.63C39.7029 13.586 39.8649 13.552 40.0289 13.528C40.1929 13.5 40.3509 13.486 40.5029 13.486H43.3829ZM48.7539 7.978C48.7539 8.314 48.7019 8.616 48.5979 8.884C48.4939 9.148 48.3539 9.372 48.1779 9.556C48.0059 9.736 47.8039 9.874 47.5719 9.97C47.3439 10.066 47.1019 10.114 46.8459 10.114C46.5779 10.114 46.3279 10.066 46.0959 9.97C45.8639 9.874 45.6619 9.736 45.4899 9.556C45.3219 9.372 45.1899 9.148 45.0939 8.884C44.9979 8.616 44.9499 8.314 44.9499 7.978C44.9499 7.634 44.9979 7.328 45.0939 7.06C45.1899 6.792 45.3219 6.566 45.4899 6.382C45.6619 6.198 45.8639 6.058 46.0959 5.962C46.3279 5.866 46.5779 5.818 46.8459 5.818C47.1179 5.818 47.3699 5.866 47.6019 5.962C47.8339 6.058 48.0359 6.198 48.2079 6.382C48.3799 6.566 48.5139 6.792 48.6099 7.06C48.7059 7.328 48.7539 7.634 48.7539 7.978ZM47.9259 7.978C47.9259 7.714 47.8979 7.49 47.8419 7.306C47.7859 7.122 47.7079 6.972 47.6079 6.856C47.5119 6.736 47.3979 6.65 47.2659 6.598C47.1339 6.546 46.9939 6.52 46.8459 6.52C46.6979 6.52 46.5599 6.546 46.4319 6.598C46.3039 6.65 46.1919 6.736 46.0959 6.856C45.9999 6.972 45.9239 7.122 45.8679 7.306C45.8119 7.49 45.7839 7.714 45.7839 7.978C45.7839 8.238 45.8119 8.46 45.8679 8.644C45.9239 8.824 45.9999 8.972 46.0959 9.088C46.1919 9.2 46.3039 9.282 46.4319 9.334C46.5599 9.382 46.6979 9.406 46.8459 9.406C46.9939 9.406 47.1339 9.382 47.2659 9.334C47.3979 9.282 47.5119 9.2 47.6079 9.088C47.7079 8.972 47.7859 8.824 47.8419 8.644C47.8979 8.46 47.9259 8.238 47.9259 7.978ZM51.7959 6.082C51.8359 6.034 51.8819 5.992 51.9339 5.956C51.9899 5.92 52.0639 5.902 52.1559 5.902H52.9299L46.6419 14.326C46.6059 14.378 46.5599 14.42 46.5039 14.452C46.4479 14.484 46.3799 14.5 46.2999 14.5H45.5139L51.7959 6.082ZM53.5119 12.472C53.5119 12.808 53.4599 13.108 53.3559 13.372C53.2519 13.636 53.1119 13.86 52.9359 14.044C52.7639 14.224 52.5619 14.362 52.3299 14.458C52.1019 14.554 51.8599 14.602 51.6039 14.602C51.3319 14.602 51.0799 14.554 50.8479 14.458C50.6199 14.362 50.4199 14.224 50.2479 14.044C50.0799 13.86 49.9479 13.636 49.8519 13.372C49.7559 13.108 49.7079 12.808 49.7079 12.472C49.7079 12.128 49.7559 11.822 49.8519 11.554C49.9479 11.282 50.0799 11.054 50.2479 10.87C50.4199 10.686 50.6199 10.546 50.8479 10.45C51.0799 10.354 51.3319 10.306 51.6039 10.306C51.8719 10.306 52.1219 10.354 52.3539 10.45C52.5899 10.546 52.7919 10.686 52.9599 10.87C53.1319 11.054 53.2659 11.282 53.3619 11.554C53.4619 11.822 53.5119 12.128 53.5119 12.472ZM52.6839 12.472C52.6839 12.208 52.6559 11.984 52.5999 11.8C52.5439 11.612 52.4659 11.46 52.3659 11.344C52.2699 11.228 52.1559 11.144 52.0239 11.092C51.8919 11.04 51.7519 11.014 51.6039 11.014C51.4559 11.014 51.3159 11.04 51.1839 11.092C51.0559 11.144 50.9439 11.228 50.8479 11.344C50.7519 11.46 50.6759 11.612 50.6199 11.8C50.5679 11.984 50.5419 12.208 50.5419 12.472C50.5419 12.732 50.5679 12.952 50.6199 13.132C50.6759 13.312 50.7519 13.46 50.8479 13.576C50.9439 13.688 51.0559 13.77 51.1839 13.822C51.3159 13.87 51.4559 13.894 51.6039 13.894C51.7519 13.894 51.8919 13.87 52.0239 13.822C52.1559 13.77 52.2699 13.688 52.3659 13.576C52.4659 13.46 52.5439 13.312 52.5999 13.132C52.6559 12.952 52.6839 12.732 52.6839 12.472Z" fill="white"/>
<path d="M20.5 7L25.5 12L23.3571 14.5V4.5L25.5 7L20.5 12" stroke="#FCFCFC" stroke-linecap="square"/>
</svg>
