<svg width="121" height="16" viewBox="0 0 121 16" fill="none" xmlns="http://www.w3.org/2000/svg">
<path fill-rule="evenodd" clip-rule="evenodd" d="M51.9958 4.52088C53.9355 4.52088 55.7034 5.23545 57.0589 6.40718L58 5.36811C56.3946 3.97447 54.2979 3 51.9958 3C49.6971 3 47.6034 3.97151 46 5.36071L46.9391 6.40126C48.2936 5.23299 50.0585 4.52088 51.9958 4.52088Z" fill="#FCFCFC"/>
<path fill-rule="evenodd" clip-rule="evenodd" d="M51.9957 7.52023C53.1583 7.52023 54.2204 7.94236 55.0396 8.63771L56.0352 7.53798C54.9516 6.6079 53.5422 6.00034 51.9957 6.00034C50.4523 6.00034 49.0438 6.60642 47.9612 7.53354L48.9554 8.63475C49.7741 7.94088 50.8347 7.52023 51.9957 7.52023Z" fill="#FCFCFC"/>
<path fill-rule="evenodd" clip-rule="evenodd" d="M54.0435 9.73743C53.4892 9.27732 52.7755 8.95874 51.9953 8.95874C51.2165 8.95874 50.5038 9.27682 49.9495 9.73496L51.9953 12L54.0435 9.73743Z" fill="#FCFCFC"/>
<path fill-rule="evenodd" clip-rule="evenodd" d="M6.75 10.5C8.26878 10.5 9.5 9.26878 9.5 7.75C9.5 6.23122 8.26878 5 6.75 5C5.23122 5 4 6.23122 4 7.75C4 9.26878 5.23122 10.5 6.75 10.5Z" fill="white"/>
<path fill-rule="evenodd" clip-rule="evenodd" d="M13.75 10.5C15.2688 10.5 16.5 9.26878 16.5 7.75C16.5 6.23122 15.2688 5 13.75 5C12.2312 5 11 6.23122 11 7.75C11 9.26878 12.2312 10.5 13.75 10.5Z" fill="white"/>
<path fill-rule="evenodd" clip-rule="evenodd" d="M20.75 10.5C22.2688 10.5 23.5 9.26878 23.5 7.75C23.5 6.23122 22.2688 5 20.75 5C19.2312 5 18 6.23122 18 7.75C18 9.26878 19.2312 10.5 20.75 10.5Z" fill="white"/>
<path fill-rule="evenodd" clip-rule="evenodd" d="M27.75 10C28.9926 10 30 8.99264 30 7.75C30 6.50736 28.9926 5.5 27.75 5.5C26.5074 5.5 25.5 6.50736 25.5 7.75C25.5 8.99264 26.5074 10 27.75 10ZM27.75 10.5C26.2312 10.5 25 9.26878 25 7.75C25 6.23122 26.2312 5 27.75 5C29.2688 5 30.5 6.23122 30.5 7.75C30.5 9.26878 29.2688 10.5 27.75 10.5Z" fill="white"/>
<path fill-rule="evenodd" clip-rule="evenodd" d="M34.75 10C35.9926 10 37 8.99264 37 7.75C37 6.50736 35.9926 5.5 34.75 5.5C33.5074 5.5 32.5 6.50736 32.5 7.75C32.5 8.99264 33.5074 10 34.75 10ZM34.75 10.5C33.2312 10.5 32 9.26878 32 7.75C32 6.23122 33.2312 5 34.75 5C36.2688 5 37.5 6.23122 37.5 7.75C37.5 9.26878 36.2688 10.5 34.75 10.5Z" fill="white"/>
</svg>
